<mxfile host="app.diagrams.net" modified="2024-01-10T07:26:04.842Z" agent="Mozilla/5.0 (Windows NT 10.0; Win64; x64) AppleWebKit/537.36 (KHTML, like Gecko) Chrome/120.0.0.0 Safari/537.36" version="22.1.18" etag="9q7IrRLs482ErTKaK5h9" type="github">
  <diagram name="Page-1" id="W9PhXfYBVUYhv20Ytn_u">
    <mxGraphModel>
      <root>
        <mxCell id="0" />
        <mxCell id="1" parent="0" />
      </root>
    </mxGraphModel>
  </diagram>
</mxfile>
